<svg width="13" height="13" viewBox="0 0 13 13" fill="none" xmlns="http://www.w3.org/2000/svg">
<g id="Frame" clip-path="url(#clip0_2071_441471)">
<path id="Vector" d="M12.8477 12.1095L11.0491 10.3099C12.0077 9.17963 12.5333 7.74532 12.532 6.26322C12.5331 5.44022 12.3715 4.62512 12.0565 3.86481C11.7414 3.1045 11.2791 2.41399 10.6962 1.83301C10.1148 1.25038 9.42386 0.788484 8.66323 0.473904C7.90259 0.159324 7.08726 -0.0017285 6.26414 1.39896e-05C5.44114 -0.00111822 4.62604 0.160492 3.86573 0.475548C3.10543 0.790603 2.41492 1.25288 1.83393 1.8358C1.25147 2.41682 0.789592 3.10725 0.474862 3.86738C0.160131 4.62752 -0.00124606 5.44236 7.24446e-06 6.26508C-0.00112497 7.08808 0.160486 7.90318 0.475541 8.66348C0.790596 9.42379 1.25288 10.1143 1.83579 10.6953C2.41681 11.2785 3.10743 11.741 3.86791 12.0562C4.62839 12.3714 5.44371 12.5331 6.26693 12.532C7.74859 12.5334 9.18252 12.0081 10.3127 11.05L12.1095 12.8477C12.2076 12.9452 12.3403 12.9999 12.4786 12.9999C12.6169 12.9999 12.7496 12.9452 12.8477 12.8477C12.9452 12.7496 12.9999 12.6169 12.9999 12.4786C12.9999 12.3403 12.9452 12.2076 12.8477 12.1095ZM6.26507 11.4855C5.57359 11.4947 4.88718 11.3665 4.24566 11.1083C3.60415 10.85 3.02033 10.4669 2.52809 9.9812C2.03585 9.49548 1.645 8.91682 1.37823 8.27881C1.11146 7.6408 0.974091 6.95615 0.974091 6.26461C0.974091 5.57308 1.11146 4.88843 1.37823 4.25042C1.645 3.61241 2.03585 3.03374 2.52809 2.54802C3.02033 2.06231 3.60415 1.67921 4.24566 1.42097C4.88718 1.16273 5.57359 1.0345 6.26507 1.04373C7.63768 1.06203 8.94786 1.62014 9.91203 2.59726C10.8762 3.57438 11.4168 4.89188 11.4168 6.26461C11.4168 7.63734 10.8762 8.95485 9.91203 9.93196C8.94786 10.9091 7.63768 11.4672 6.26507 11.4855Z" fill="#09090B"/>
<path id="Vector_2" d="M8.33176 5.73079H6.74948V4.14851C6.74899 4.0137 6.69522 3.88455 6.5999 3.78923C6.50457 3.69391 6.37543 3.64014 6.24062 3.63965C6.10581 3.64014 5.97667 3.69391 5.88135 3.78923C5.78602 3.88455 5.73225 4.0137 5.73177 4.14851V5.73079H4.14948C4.01468 5.73128 3.88553 5.78505 3.79021 5.88037C3.69488 5.97569 3.64111 6.10484 3.64062 6.23964C3.64111 6.37445 3.69488 6.5036 3.79021 6.59892C3.88553 6.69424 4.01468 6.74801 4.14948 6.7485H5.73177V8.33078C5.73225 8.46559 5.78602 8.59474 5.88135 8.69006C5.97667 8.78538 6.10581 8.83915 6.24062 8.83964C6.37543 8.83915 6.50457 8.78538 6.5999 8.69006C6.69522 8.59474 6.74899 8.46559 6.74948 8.33078V6.7485H8.33176C8.46657 6.74801 8.59571 6.69424 8.69104 6.59892C8.78636 6.5036 8.84013 6.37445 8.84062 6.23964C8.84013 6.10484 8.78636 5.97569 8.69104 5.88037C8.59571 5.78505 8.46657 5.73128 8.33176 5.73079Z" fill="#09090B"/>
</g>
<defs>
<clipPath id="clip0_2071_441471">
<rect width="13" height="13" fill="white"/>
</clipPath>
</defs>
</svg>
