<svg width="12" height="13" viewBox="0 0 12 13" fill="none" xmlns="http://www.w3.org/2000/svg">
<g id="Frame">
<path id="Vector" d="M7.41416 2.96411L6.50199 3.87628V1.5499C6.50199 1.41675 6.4491 1.28905 6.35494 1.1949C6.26079 1.10075 6.1331 1.04785 5.99994 1.04785C5.86679 1.04785 5.7391 1.10075 5.64494 1.1949C5.55079 1.28905 5.4979 1.41675 5.4979 1.5499L5.49436 3.87274L4.58573 2.96411C4.49196 2.87034 4.36479 2.81766 4.23218 2.81766C4.09957 2.81766 3.97239 2.87034 3.87862 2.96411C3.78486 3.05788 3.73218 3.18506 3.73218 3.31766C3.73218 3.45027 3.78486 3.57745 3.87862 3.67122L5.64639 5.43898C5.74016 5.53275 5.86734 5.58543 5.99994 5.58543C6.13255 5.58543 6.25973 5.53275 6.3535 5.43898L8.12127 3.67122C8.21501 3.57744 8.26767 3.45028 8.26766 3.31768C8.26765 3.18509 8.21497 3.05792 8.12121 2.96417C8.02745 2.87041 7.90029 2.81773 7.7677 2.81772C7.6351 2.81771 7.50793 2.87037 7.41416 2.96411ZM5.64639 7.5603L3.87862 9.32807C3.78488 9.42185 3.73222 9.54901 3.73223 9.68161C3.73224 9.8142 3.78492 9.94137 3.87868 10.0351C3.97244 10.1289 4.0996 10.1816 4.23219 10.1816C4.36479 10.1816 4.49196 10.1289 4.58573 10.0352L5.49436 9.12655L5.4979 11.4494C5.49763 11.5154 5.51043 11.5808 5.53556 11.6418C5.5607 11.7029 5.59767 11.7583 5.64434 11.805C5.69101 11.8517 5.74647 11.8886 5.8075 11.9138C5.86853 11.9389 5.93394 11.9517 5.99994 11.9514C6.06595 11.9517 6.13136 11.9389 6.19239 11.9138C6.25342 11.8886 6.30888 11.8517 6.35555 11.805C6.40222 11.7583 6.43919 11.7029 6.46433 11.6418C6.48946 11.5808 6.50226 11.5154 6.50199 11.4494V9.12301L7.41416 10.0352C7.50793 10.1289 7.6351 10.1816 7.76771 10.1816C7.90032 10.1816 8.0275 10.1289 8.12127 10.0352C8.21503 9.94141 8.26771 9.81423 8.26771 9.68163C8.26771 9.54902 8.21503 9.42184 8.12127 9.32807L6.3535 7.5603C6.25973 7.46654 6.13255 7.41386 5.99994 7.41386C5.86734 7.41386 5.74016 7.46654 5.64639 7.5603Z" fill="#3170FA"/>
</g>
</svg>
