<svg width="12" height="13" viewBox="0 0 12 13" fill="none" xmlns="http://www.w3.org/2000/svg">
<g id="Frame">
<path id="Vector" d="M5.91416 1.64645L4.14639 3.41421C4.05265 3.50799 3.99999 3.63516 4 3.76775C4.00001 3.90035 4.05269 4.02751 4.14645 4.12127C4.24021 4.21502 4.36737 4.2677 4.49996 4.26771C4.63256 4.26772 4.75973 4.21507 4.8535 4.12132L5.76213 3.21269L5.76567 5.53553C5.7654 5.60154 5.7782 5.66694 5.80333 5.72798C5.82847 5.78901 5.86544 5.84446 5.91211 5.89114C5.95878 5.93781 6.01424 5.97478 6.07527 5.99991C6.1363 6.02505 6.20171 6.03785 6.26771 6.03758C6.33372 6.03785 6.39912 6.02505 6.46016 5.99991C6.52119 5.97478 6.57664 5.93781 6.62332 5.89114C6.66999 5.84446 6.70696 5.78901 6.73209 5.72798C6.75723 5.66694 6.77003 5.60154 6.76976 5.53553V3.20915L7.68193 4.12132C7.77569 4.21509 7.90287 4.26777 8.03548 4.26777C8.16809 4.26777 8.29527 4.21509 8.38903 4.12132C8.4828 4.02755 8.53548 3.90038 8.53548 3.76777C8.53548 3.63516 8.4828 3.50798 8.38903 3.41421L6.62127 1.64645C6.5275 1.55268 6.40032 1.5 6.26771 1.5C6.1351 1.5 6.00793 1.55268 5.91416 1.64645Z" fill="#3170FA"/>
<path id="Vector_2" d="M7.68198 9.5022L6.76981 10.4144V8.08798C6.76981 7.95483 6.71692 7.82714 6.62277 7.73298C6.52861 7.63883 6.40092 7.58594 6.26777 7.58594C6.13462 7.58594 6.00692 7.63883 5.91277 7.73298C5.81862 7.82714 5.76572 7.95483 5.76572 8.08798L5.76219 10.4108L4.85355 9.5022C4.75979 9.40843 4.63261 9.35575 4.5 9.35575C4.36739 9.35575 4.24021 9.40843 4.14645 9.5022C4.05268 9.59596 4 9.72314 4 9.85575C4 9.98836 4.05268 10.1155 4.14645 10.2093L5.91421 11.9771C6.00798 12.0708 6.13516 12.1235 6.26777 12.1235C6.40038 12.1235 6.52755 12.0708 6.62132 11.9771L8.38909 10.2093C8.48283 10.1155 8.53549 9.98836 8.53548 9.85577C8.53547 9.72317 8.48279 9.59601 8.38903 9.50225C8.29527 9.40849 8.16811 9.35581 8.03552 9.3558C7.90292 9.35579 7.77575 9.40845 7.68198 9.5022Z" fill="#3170FA"/>
</g>
</svg>
